<?xml version="1.0" encoding="UTF-8"?>
<!DOCTYPE svg PUBLIC "-//W3C//DTD SVG 1.1//EN" "http://www.w3.org/Graphics/SVG/1.1/DTD/svg11.dtd">
<!-- Creator: CorelDRAW X8 -->
<svg xmlns="http://www.w3.org/2000/svg" xml:space="preserve" width="8.09722in" height="8.54053in" version="1.1" style="shape-rendering:geometricPrecision; text-rendering:geometricPrecision; image-rendering:optimizeQuality; fill-rule:evenodd; clip-rule:evenodd"
viewBox="0 0 8097 8541"
 xmlns:xlink="http://www.w3.org/1999/xlink">
 <defs>
  <style type="text/css">
   <![CDATA[
    .str1 {stroke:#33CC66;stroke-width:27.7756}
    .str0 {stroke:#33CC66;stroke-width:27.7756}
    .fil1 {fill:#195FAA}
    .fil2 {fill:#195FAA;fill-rule:nonzero}
    .fil3 {fill:#195FAA;fill-rule:nonzero}
    .fil0 {fill:#33CC66;fill-rule:nonzero}
   ]]>
  </style>
 </defs>
 <g id="Layer_x0020_1">
  <metadata id="CorelCorpID_0Corel-Layer"/>
  <path class="fil0 str0" d="M1236 3489c140,-392 359,-745 638,-1042 6,19 12,38 19,57 -260,283 -466,617 -600,985l-57 0zm4790 -1233l5 4 1 1 5 5 0 0 5 4 2 2 3 3 11 9 0 1 5 4 2 2 3 3 4 3 1 2 5 4 11 10 3 3 2 2 9 8 1 1 2 2 3 3 4 4 1 1 5 5 0 0 5 5 2 2 3 3 4 3 1 2 5 5 0 0 5 4 2 2 3 3 4 4 1 1 5 5 13 13 3 3c9,9 17,17 25,26l3 3 2 2 11 11 3 4 8 8 8 9 9 10 2 2 12 13 1 1 2 2 9 11 3 3 2 2 9 10 1 1 5 6 7 7 4 5 0 1 3 2 8 10 4 5 9 10 2 2 1 1 7 9 2 2 7 8 8 10 0 0 5 6 8 10 2 3 1 1 9 10 1 2 5 6 7 9 7 9 6 8 6 7 8 11c5,7 10,13 16,20l7 11 7 8 4 6c174,236 315,499 414,781l-56 0c-102,-282 -245,-545 -424,-780l0 0 -12 -16 0 0c-20,-26 -41,-52 -62,-77l-2 -3 -10 -12 -2 -2 -12 -15 0 0 -13 -15 -1 -1 -12 -15 0 0 -13 -14 -1 -1 -11 -12 -2 -3 -2 -2 -10 -11 -1 -2 -1 0 -12 -13 -2 -2 -13 -14 0 0 -9 -11 -2 -1 -5 -5 -11 -12 0 0 -12 -13 -2 -2 -3 -2 -9 -9 -4 -5 -12 -12 -5 -5 -1 -1 -3 -3 -3 -3 -2 -1 -4 -4 0 -1 -5 -4 -1 -1 -3 -4 -2 -2 -3 -2 -3 -4 -1 0 -5 -5 0 0 -4 -4 -2 -2 -3 -2 -3 -3 -1 -2 -5 -4 0 0 -4 -4 -2 -2 -3 -3 -3 -2 -2 -2 -4 -4 0 0 -5 -5 -4 -4 -3 -2 -2 -2 -4 -3 -1 -1 -4 -4 -1 -1 -4 -4 -2 -1 -3 -3 -9 -8 0 0c-59,-53 -121,-104 -184,-152l0 0c-32,-25 -65,-48 -98,-71 -6,-27 -14,-54 -23,-80 115,76 225,161 328,252zm-1330 -1747c635,102 1221,353 1720,715l0 0c172,126 335,264 486,415 730,730 1181,1739 1181,2853 0,17 0,34 0,51l0 1c0,17 -1,34 -1,51l0 1 0 1c0,16 -1,33 -2,49l0 2 0 2c0,15 -1,31 -2,47l0 6c-1,14 -2,29 -3,43l0 10c-1,13 -2,27 -3,40l-1 12c-1,13 -2,25 -3,38l-2 17c0,10 -1,20 -2,30l-3 21c-1,10 -2,20 -3,30l-2 23 -3 24c-2,10 -3,20 -4,30l-3 19c-1,11 -3,23 -4,34l-3 17c-2,11 -3,22 -5,33l-2 14c-138,855 -544,1621 -1130,2207 -731,730 -1739,1182 -2853,1182 -1115,0 -2123,-452 -2853,-1182 -27,-27 -53,-54 -79,-81l0 -78c38,41 77,82 116,121 721,721 1716,1166 2816,1166 1099,0 2095,-445 2815,-1166 576,-576 977,-1328 1114,-2169l0 -1c2,-10 3,-19 5,-29l3 -19c1,-10 2,-19 4,-29l3 -23c1,-9 3,-19 4,-29l2 -19c2,-10 3,-21 4,-31l2 -17c1,-12 3,-24 4,-36l1 -13c1,-12 3,-25 4,-37l1 -13c1,-13 2,-25 3,-38l1 -11c1,-14 2,-27 3,-41l0 -9c1,-14 2,-29 3,-44l0 -5c1,-15 2,-31 2,-47l0 -1 0 0 0 -1c1,-17 1,-33 2,-49l0 -1 0 0 0 -2c0,-16 1,-32 1,-48l0 -2 0 0 0 -1c0,-17 0,-33 0,-50 0,-1100 -445,-2095 -1166,-2815 -66,-66 -134,-129 -204,-190l0 0c-42,-37 -85,-73 -130,-109l0 0c-8,-7 -17,-13 -25,-20l-1 -1 -3 -2c-7,-5 -14,-11 -22,-17l-2 -2 -2 -1c-7,-6 -15,-12 -23,-18l-5 -3 -21 -16 -7 -5 -20 -15 -8 -6 -18 -13 -10 -7 -20 -14 -5 -4c-481,-338 -1039,-573 -1643,-671 1,-18 1,-36 1,-54zm-1586 113c-722,174 -1368,546 -1877,1055 -720,720 -1166,1715 -1166,2815 0,489 88,958 250,1391l-57 0c-159,-434 -246,-902 -246,-1391 0,-1114 452,-2123 1182,-2853 517,-518 1175,-895 1911,-1071 1,18 2,36 3,54zm939 6855c-825,0 -1571,-334 -2111,-874 -146,-146 -276,-306 -389,-479l64 0c106,159 228,306 363,441 530,531 1263,859 2073,859 809,0 1542,-328 2073,-859 463,-463 771,-1080 843,-1767l53 0c-71,702 -386,1332 -859,1805 -540,540 -1286,874 -2110,874z"/>
  <g id="_672576576">
   <path class="fil1" d="M6074 2809c0,-1265 157,-716 -529,-1147l-1212 -784c-138,206 -339,451 -475,656 22,39 60,81 86,116 27,36 57,79 84,118 45,66 140,166 92,281 -104,244 -702,233 -944,244 -120,5 -244,17 -311,85 -147,146 -93,339 29,436 93,72 153,45 266,41 186,-6 568,-50 949,-20 586,44 1251,214 1965,-26z"/>
   <path class="fil1" d="M2845 2841c-121,-125 -145,-301 -50,-430 100,-136 215,-144 427,-153 73,-3 60,-11 94,-59l183 -252c41,-57 83,-114 123,-168l860 -1180c29,-40 230,-307 244,-341 -63,-35 -315,-231 -367,-258l-1857 2547c-23,31 -50,68 -73,101 -23,31 -49,63 -70,96 -24,35 -116,478 -126,550 41,-14 136,-73 178,-98l251 -143c45,-25 45,-19 74,-57l109 -155z"/>
   <path class="fil1" d="M3871 590c-30,-25 -111,-72 -153,-90 -242,-104 -366,-32 -504,152 -174,232 -346,491 -517,728l-614 880c-31,46 -80,97 -51,175 37,101 201,171 348,150 55,-9 48,-13 75,-50l157 -216c139,-196 281,-381 420,-576l839 -1153z"/>
  </g>
  <path class="fil2" d="M2588 5557l5 61 -131 10 5 70 101 -8 4 59 -101 7 10 129 -77 6 -23 -319 207 -15zm331 0c30,2 57,12 80,28 24,15 41,36 53,62 12,26 17,55 14,86 -2,31 -12,59 -28,82 -16,24 -37,42 -63,54 -25,12 -53,17 -83,14 -29,-2 -56,-11 -79,-27 -24,-16 -41,-37 -54,-64 -12,-26 -17,-54 -14,-86 3,-31 12,-58 28,-82 17,-23 38,-41 63,-53 26,-12 54,-17 83,-14zm-6 71c-25,-2 -46,5 -62,20 -16,15 -25,37 -28,65 -2,28 4,51 17,68 14,18 33,28 58,30 25,2 46,-4 62,-20 16,-15 26,-36 28,-64 2,-28 -3,-51 -17,-69 -13,-18 -32,-28 -58,-30zm432 320l-40 -133 -18 -3 -26 117 -76 -17 71 -311 129 29c25,6 45,15 60,27 15,12 25,27 30,44 5,17 5,34 1,54 -5,22 -16,40 -32,53 -16,13 -36,20 -62,20l46 139 -83 -19zm-46 -188l47 11c15,3 27,2 35,-3 9,-5 15,-14 17,-27 3,-12 2,-22 -4,-31 -5,-9 -15,-15 -30,-18l-47 -11 -18 79zm589 22c38,15 66,37 83,66 17,30 23,63 17,100l-76 -29c0,-16 -5,-30 -14,-43 -8,-12 -21,-21 -37,-27 -21,-8 -41,-7 -60,3 -18,11 -33,29 -43,55 -9,26 -11,49 -4,69 7,21 22,35 43,43 16,6 31,7 46,4 14,-4 27,-11 38,-23l76 30c-20,31 -46,51 -79,62 -32,11 -68,9 -106,-6 -29,-11 -52,-27 -69,-48 -17,-21 -27,-46 -30,-73 -3,-28 1,-56 12,-86 11,-29 27,-54 48,-72 21,-19 44,-30 71,-35 27,-4 55,-1 84,10zm525 213l-118 297 -72 -29 49 -124 -112 -45 -49 124 -72 -28 118 -297 72 29 -46 115 112 44 46 -115 72 29zm176 387l-34 -135 -17 -4 -33 116 -74 -21 86 -307 127 35c24,7 44,17 58,30 15,13 24,28 28,45 5,17 4,35 -1,54 -6,22 -18,40 -34,52 -17,12 -38,18 -63,17l39 141 -82 -23zm-37 -190l46 13c15,4 27,4 36,-1 8,-4 15,-13 18,-26 4,-12 3,-23 -3,-32 -5,-9 -14,-15 -29,-19l-46 -13 -22 78zm368 -77l-45 316 -77 -10 45 -317 77 11zm327 234c0,16 -4,32 -13,46 -8,14 -21,26 -37,34 -17,9 -37,13 -61,13 -36,1 -66,-8 -89,-25 -23,-18 -36,-42 -38,-73l82 -1c1,12 6,22 13,29 7,6 17,10 28,10 10,0 18,-3 24,-8 5,-6 8,-13 8,-22 0,-8 -3,-15 -8,-20 -5,-6 -12,-10 -20,-14 -7,-3 -18,-7 -32,-12 -20,-7 -37,-13 -50,-20 -13,-6 -24,-16 -33,-28 -9,-13 -14,-30 -14,-50 0,-19 5,-36 14,-50 10,-13 23,-24 40,-32 17,-7 36,-11 58,-11 36,0 64,8 85,25 21,16 33,40 36,69l-83 1c-2,-11 -6,-19 -12,-25 -6,-7 -15,-10 -25,-10 -9,1 -17,3 -22,8 -6,5 -8,12 -8,21 0,8 2,14 7,19 5,5 12,10 19,13 8,3 18,7 33,12 20,7 37,14 50,21 13,6 24,16 34,29 9,13 14,30 14,51zm305 -279l10 61 -85 14 43 254 -76 14 -44 -255 -84 15 -11 -61 247 -42z"/>
  <path class="fil2" d="M3075 4154c-90,0 -649,212 -746,251 20,-110 33,-219 33,-328 0,-476 -245,-791 -579,-791 -399,0 -649,739 -784,1357 13,-605 19,-1100 13,-1125 -20,-71 -135,-97 -232,-103 -71,0 -128,6 -180,58 -45,38 -199,1935 32,3323 7,52 116,90 206,90 64,0 122,-19 122,-71 0,-38 7,-379 13,-829 13,-154 26,-302 45,-456 19,96 84,193 264,193 501,0 874,-547 1015,-1132 245,-109 515,-212 791,-296 90,-25 51,-141 -13,-141zm-2025 1131c148,-938 469,-1774 669,-1774 32,0 103,174 103,527 0,212 -26,431 -71,637 -322,167 -598,379 -701,610zm212 264c-32,0 -77,-19 -77,-103 0,-186 199,-379 514,-566 -115,386 -282,669 -437,669z"/>
  <path class="fil2" d="M3710 4132c0,0 -247,640 -476,640 -69,0 -190,-116 -190,-419 0,-26 0,-48 4,-69 212,-48 393,-216 393,-389 0,-195 -233,-230 -298,-230 -277,0 -480,364 -480,731 0,368 238,593 510,593 312,0 627,-822 627,-822 13,-39 -17,-65 -47,-65 -18,0 -35,9 -43,30zm-511 -359c31,0 39,70 39,117 0,95 -95,216 -181,286 34,-225 116,-403 142,-403z"/>
  <path class="fil3" d="M5244 5224c-86,0 22,-1224 22,-1463 0,-239 -182,-353 -364,-353 -387,0 -791,1281 -791,1281 0,0 34,-740 -40,-814 -74,-74 -154,-74 -217,-74 -68,0 -216,40 -216,102 0,103 -46,957 159,1162 23,23 74,34 126,34 96,0 210,-40 227,-114 69,-256 513,-1384 672,-1384 57,0 -68,786 -68,1253 0,467 165,729 370,729 319,0 860,-1406 860,-1406 17,-52 -23,-86 -63,-86 -23,0 -45,12 -57,40 0,0 -432,1093 -620,1093z"/>
  <path class="fil2" d="M6986 4131c-85,222 -194,387 -307,507 -103,-461 -353,-1019 -353,-1276 0,-119 51,-171 96,-171 120,0 52,137 154,137 57,0 63,-233 -165,-233 -182,0 -507,79 -507,364 0,91 29,228 74,382 -57,159 -114,290 -114,290 -22,51 17,85 63,85 23,0 46,-11 57,-39 17,-40 34,-86 57,-137 97,313 222,660 273,905 -165,108 -285,194 -285,353 0,205 177,279 251,279 313,0 438,-239 438,-615 0,-45 0,-96 -11,-153 154,-148 308,-348 399,-632 17,-52 -23,-86 -63,-86 -23,0 -46,12 -57,40zm-723 1264c-40,0 -74,-28 -74,-85 0,-69 57,-131 142,-200 0,211 -28,285 -68,285z"/>
  <path class="fil1" d="M2456 5298c1902,-344 2251,1026 3985,407 -505,188 -870,226 -1185,184 -767,-100 -1251,-685 -2800,-591z"/>
  <path class="fil1" d="M2103 6125c1848,-275 2219,1028 3689,377 -1700,880 -1703,-439 -3689,-377z"/>
  <g id="_76525728">
   <path class="fil2" d="M1735 7086c6,5 10,12 11,20 1,8 -2,16 -8,22 -6,7 -13,11 -21,12 -8,1 -15,-2 -22,-8 -7,-5 -10,-12 -11,-20 -1,-8 2,-16 8,-23 6,-6 13,-10 20,-11 8,-1 16,2 23,8zm66 56c7,5 10,12 11,20 1,8 -2,16 -8,23 -5,6 -12,10 -20,11 -8,1 -16,-2 -23,-8 -6,-5 -10,-12 -11,-20 0,-8 2,-16 8,-23 6,-6 13,-10 21,-11 8,-1 15,2 22,8zm65 54c7,6 11,13 12,21 1,8 -1,15 -7,22 -6,7 -13,11 -21,12 -8,1 -15,-1 -22,-7 -7,-5 -11,-12 -12,-20 0,-8 2,-16 8,-23 5,-7 12,-11 20,-12 8,-1 15,2 22,7zm230 8c17,12 27,27 30,46 3,18 -3,36 -15,54l-70 99 -52 -36 60 -84c6,-9 8,-18 7,-26 -1,-9 -6,-16 -14,-22 -9,-6 -19,-8 -29,-6 -10,3 -19,10 -26,20l-55 77 -52 -36 152 -215 51 36 -59 84c12,-5 24,-7 37,-5 12,1 23,6 35,14zm155 108c26,17 42,38 46,62 4,25 -3,50 -20,77 -3,4 -5,8 -7,10l-112 -73c-3,11 -3,21 0,30 3,9 9,16 19,22 6,5 14,8 22,9 8,1 17,1 26,-1l10 46c-15,4 -30,4 -44,1 -15,-2 -30,-9 -45,-18 -17,-11 -30,-25 -39,-40 -8,-15 -12,-31 -11,-47 1,-17 7,-34 18,-50 10,-16 23,-29 38,-37 16,-8 32,-11 49,-10 17,2 34,8 50,19zm-14 87c6,-9 8,-18 7,-28 -2,-9 -8,-16 -16,-22 -9,-5 -18,-7 -27,-5 -9,2 -18,7 -26,15l62 40zm151 -81l55 31 -132 228 -55 -32 132 -227zm160 167c16,8 28,18 36,32 9,13 13,28 13,45 0,16 -5,34 -13,51 -9,17 -20,31 -33,41 -13,10 -27,15 -43,17 -15,1 -31,-3 -46,-10 -11,-6 -20,-13 -27,-21 -6,-9 -11,-18 -13,-29l-42 83 -56 -28 116 -233 57 29 -11 22c20,-10 41,-10 62,1zm-79 122c11,6 22,6 33,2 11,-4 19,-13 25,-25 7,-13 8,-25 6,-37 -3,-11 -10,-19 -21,-25 -11,-5 -22,-6 -32,-1 -11,4 -20,13 -26,26 -6,12 -8,24 -5,36 2,11 10,19 20,24zm182 -69l57 26 -80 174 -57 -26 80 -174zm64 -68c9,4 15,11 18,19 3,8 3,17 -1,26 -4,8 -11,15 -19,18 -8,3 -17,2 -26,-2 -8,-4 -15,-10 -17,-18 -3,-9 -3,-17 1,-26 4,-9 10,-15 19,-18 8,-3 17,-3 25,1zm146 158c20,8 33,20 40,37 6,17 5,36 -3,57l-46 112 -58 -24 39 -95c4,-10 5,-19 2,-27 -3,-8 -10,-14 -19,-18 -10,-4 -19,-4 -28,0 -8,3 -15,10 -20,20l-39 93 -58 -23 72 -178 59 24 -12 29c10,-8 22,-12 34,-13 12,-2 25,1 37,6zm268 100l-58 165c-5,16 -15,30 -27,40 -13,9 -28,15 -45,17 -17,1 -36,-1 -55,-8 -15,-5 -29,-13 -42,-22 -12,-9 -23,-19 -31,-30l35 -34c6,9 14,16 22,23 9,6 18,11 28,15 13,4 25,5 35,1 10,-3 17,-10 20,-21l7 -20c-17,12 -37,14 -60,6 -14,-5 -27,-13 -36,-24 -9,-12 -15,-25 -16,-41 -2,-15 0,-32 6,-49 5,-17 14,-31 25,-41 11,-11 23,-18 37,-21 14,-3 29,-2 43,3 11,4 21,9 28,17 8,7 14,15 17,25l8 -22 59 21zm-140 94c10,4 21,3 30,-2 10,-6 17,-15 21,-27 4,-13 4,-25 1,-35 -4,-10 -12,-17 -23,-21 -11,-3 -21,-3 -31,3 -9,6 -16,15 -20,27 -5,12 -5,24 -1,34 4,10 12,17 23,21zm294 160c-11,16 -24,27 -38,33 -14,5 -29,6 -47,2 -10,-3 -20,-6 -28,-12 -8,-5 -16,-12 -23,-20l36 -37c3,5 7,8 10,11 4,2 8,4 12,5 10,3 19,0 26,-9l6 -7 -35 -200 63 14 17 132 67 -112 62 14 -128 186zm224 -169c20,4 38,11 52,22 14,11 24,25 29,41 6,16 7,34 3,53 -4,19 -11,35 -23,48 -11,13 -26,22 -43,27 -17,4 -36,5 -56,1 -20,-4 -38,-12 -51,-23 -14,-11 -24,-24 -30,-41 -5,-16 -6,-34 -2,-53 3,-19 11,-35 22,-47 12,-13 26,-22 43,-27 17,-5 36,-5 56,-1zm-10 50c-12,-2 -22,0 -31,7 -10,7 -16,18 -18,31 -3,14 -2,27 4,37 6,10 15,16 27,18 12,3 23,0 32,-7 9,-7 15,-18 18,-32 2,-13 1,-26 -5,-36 -6,-10 -15,-16 -27,-18zm318 -4l-25 190 -62 -8 4 -31c-16,21 -38,29 -65,26 -21,-3 -37,-11 -47,-26 -11,-15 -15,-33 -12,-55l16 -121 62 9 -13 102c-1,10 0,19 5,26 5,7 12,11 21,12 11,1 20,-2 28,-9 7,-6 12,-16 13,-29l12 -94 63 8zm356 17l4 174c0,18 -4,34 -13,47 -8,14 -20,24 -36,32 -15,7 -33,11 -54,12 -16,0 -31,-2 -46,-6 -15,-4 -28,-10 -40,-17l21 -44c9,6 19,10 29,13 10,3 20,5 31,4 14,0 25,-3 33,-10 8,-7 12,-16 12,-27l-1 -21c-12,17 -30,26 -54,26 -15,1 -30,-3 -42,-10 -13,-8 -23,-18 -30,-32 -7,-14 -11,-30 -11,-48 -1,-18 2,-34 9,-48 6,-14 15,-25 28,-33 12,-7 26,-11 41,-12 12,0 23,2 32,6 10,4 18,10 25,19l-1 -24 63 -1zm-99 137c12,0 21,-5 28,-13 7,-8 10,-19 10,-33 0,-13 -4,-24 -11,-32 -8,-8 -17,-12 -29,-12 -11,1 -20,5 -27,13 -7,9 -11,20 -11,33 1,13 5,24 12,32 7,8 17,12 28,12zm202 -109c6,-12 14,-21 24,-27 10,-7 22,-11 36,-11l3 57c-2,0 -5,0 -9,0 -15,1 -27,6 -36,13 -9,8 -13,17 -14,30l6 97 -63 4 -12 -191 63 -4 2 32zm162 -47c20,-3 39,-1 56,5 17,6 30,16 41,29 11,13 17,30 20,49 2,19 0,37 -6,53 -7,16 -18,29 -32,39 -15,10 -33,17 -53,19 -21,3 -39,1 -56,-4 -17,-6 -31,-16 -41,-30 -11,-13 -17,-30 -20,-49 -2,-19 0,-37 6,-53 7,-15 17,-28 32,-38 15,-11 32,-17 53,-20zm7 51c-13,1 -22,7 -28,17 -7,9 -9,21 -7,35 2,14 7,25 16,33 9,8 19,11 31,9 13,-2 22,-7 28,-17 7,-10 9,-22 7,-36 -2,-14 -7,-25 -16,-32 -9,-8 -19,-11 -31,-9zm90 -60l63 -11 60 121 15 -134 59 -11 60 121 15 -134 61 -11 -36 201 -61 11 -57 -110 -16 123 -61 11 -102 -177zm408 -82l60 -17 54 184 -60 17 -54 -184zm5 -93c9,-3 18,-2 26,2 7,4 13,11 15,21 3,9 2,18 -2,26 -4,7 -11,13 -20,16 -9,2 -18,1 -26,-3 -7,-4 -13,-11 -15,-20 -3,-10 -3,-19 2,-26 4,-8 11,-13 20,-16zm214 23c20,-7 38,-6 54,3 16,8 28,23 35,44l39 115 -60 20 -32 -98c-4,-10 -9,-17 -17,-21 -8,-4 -16,-5 -25,-1 -10,3 -17,9 -22,18 -4,8 -5,18 -2,28l32 96 -60 20 -61 -181 60 -20 10 29c3,-13 8,-23 17,-32 8,-9 19,-16 32,-20zm345 99c-1,20 -5,36 -13,48 -9,13 -21,22 -38,29 -10,3 -20,6 -30,6 -10,0 -20,-1 -30,-4l8 -51c6,2 11,3 15,3 5,1 9,0 13,-2 10,-4 15,-11 16,-22l1 -10 -141 -146 61 -23 87 100 -7 -131 59 -23 -1 226zm74 -273c19,-9 37,-14 55,-14 17,1 33,5 48,15 14,9 26,22 34,40 9,17 13,35 12,52 -2,17 -8,32 -18,47 -11,14 -25,26 -44,35 -18,9 -37,14 -54,14 -18,0 -34,-5 -49,-15 -14,-9 -25,-23 -34,-40 -9,-17 -12,-35 -11,-52 1,-17 7,-32 17,-47 11,-14 25,-26 44,-35zm23 45c-11,6 -18,14 -21,25 -3,12 -1,24 5,36 6,13 15,22 26,26 10,5 21,4 32,-1 11,-6 18,-14 21,-25 3,-12 1,-24 -5,-36 -6,-13 -15,-22 -26,-26 -10,-5 -21,-4 -32,1zm253 -192l95 166 -54 31 -16 -27c0,26 -12,46 -36,61 -18,10 -36,12 -53,7 -18,-5 -32,-18 -43,-37l-60 -105 54 -31 52 89c5,9 12,15 20,18 7,2 15,1 24,-3 9,-6 15,-14 16,-24 2,-10 -1,-21 -7,-32l-47 -82 55 -31zm106 -29c-1,-13 2,-24 8,-35 6,-11 15,-19 26,-26l30 49c-2,1 -4,2 -8,4 -13,8 -21,18 -25,28 -4,11 -4,22 1,33l52 83 -54 33 -101 -163 54 -33 17 27zm179 -126c-2,-12 0,-24 5,-35 5,-11 13,-21 24,-29l34 47c-2,1 -4,3 -8,5 -12,9 -19,19 -23,30 -3,11 -2,22 4,33l58 79 -51 37 -113 -155 51 -37 19 25zm104 -124c23,-20 47,-29 72,-26 25,3 48,17 69,41 3,4 5,7 7,9l-101 87c10,6 19,9 29,8 9,0 18,-4 26,-11 7,-6 11,-12 15,-20 4,-7 6,-15 7,-24l46 3c0,15 -4,29 -11,43 -6,13 -17,26 -30,37 -15,14 -32,23 -48,27 -17,4 -34,3 -49,-3 -16,-6 -30,-16 -43,-30 -13,-15 -21,-31 -25,-48 -3,-17 -2,-33 4,-49 6,-16 17,-31 32,-44zm80 38c-7,-8 -16,-13 -25,-14 -9,0 -18,3 -26,10 -8,6 -12,14 -12,23 -1,10 1,20 7,29l56 -48zm-27 -176l48 -41 172 199 -47 41 -173 -199zm181 -78c18,-18 37,-28 56,-30 19,-1 37,6 52,21l88 89 -45 44 -15 -16c3,21 -5,40 -24,58 -14,14 -30,22 -46,22 -16,0 -30,-6 -43,-19 -12,-13 -18,-27 -16,-43 2,-16 11,-33 28,-50l36 -35 -2 -1c-6,-7 -13,-10 -21,-9 -8,1 -17,6 -25,14 -6,6 -11,13 -17,22 -5,9 -9,18 -13,29l-42 -18c6,-16 13,-30 21,-43 7,-12 17,-24 28,-35zm96 122c7,-7 11,-14 13,-23 2,-8 1,-15 -3,-22l-12 -12 -27 27c-12,12 -14,23 -5,32 5,5 10,7 16,7 6,-1 12,-4 18,-9zm207 -170c-2,7 -5,15 -10,24 -5,8 -10,15 -17,22 -13,14 -28,21 -44,22 -16,1 -30,-6 -44,-19l-59 -57 -19 19 -30 -29 19 -19 -39 -37 44 -45 38 37 35 -36 30 29 -35 36 52 50c10,10 19,10 26,2 5,-5 9,-12 13,-22l40 23zm-122 -144l41 -47 146 124 -41 48 -146 -125zm-47 -80c6,-8 14,-12 23,-12 9,-1 17,2 24,8 8,7 12,14 13,23 0,9 -2,17 -9,24 -6,8 -14,12 -22,12 -9,1 -18,-2 -25,-8 -7,-6 -12,-14 -12,-23 -1,-9 2,-17 8,-24zm167 -70c13,-16 28,-28 44,-36 16,-7 33,-10 50,-7 17,2 33,9 48,21 15,12 26,26 32,42 6,16 8,33 4,51 -3,17 -11,34 -24,50 -13,17 -28,28 -44,36 -16,7 -32,10 -49,7 -17,-2 -33,-9 -49,-22 -15,-12 -26,-26 -32,-41 -6,-16 -8,-33 -4,-51 3,-17 11,-34 24,-50zm40 31c-7,10 -10,21 -8,32 2,11 9,21 20,30 11,9 23,13 34,13 12,-1 21,-6 29,-15 8,-10 11,-21 8,-32 -2,-12 -9,-22 -20,-31 -11,-8 -22,-13 -34,-12 -12,1 -21,6 -29,15zm100 -228c11,-18 26,-29 44,-33 18,-3 36,1 55,13l103 63 -33 54 -88 -55c-9,-5 -18,-7 -26,-6 -9,2 -15,7 -21,15 -5,9 -7,18 -4,28 2,9 7,17 16,24l86 53 -34 54 -163 -102 34 -53 26 16c-6,-11 -8,-23 -7,-35 1,-12 5,-24 12,-36zm175 -169c-23,15 -39,29 -47,43 -3,5 -4,9 -4,13 0,4 2,7 5,9 4,2 8,1 13,-2 5,-3 12,-9 20,-17 10,-10 19,-18 27,-24 8,-6 17,-10 27,-11 11,-2 21,0 32,7 17,9 26,23 28,42 2,18 -3,38 -15,59 -8,14 -18,26 -29,37 -11,10 -24,19 -37,24l-26 -37c12,-6 23,-13 32,-21 10,-9 17,-17 23,-27 3,-5 4,-10 4,-14 1,-4 -1,-7 -4,-9 -4,-2 -9,-2 -14,2 -5,3 -11,9 -20,17 -10,10 -19,17 -27,23 -7,5 -16,9 -26,11 -10,2 -21,-1 -31,-7 -17,-10 -27,-23 -29,-42 -2,-18 3,-37 14,-57 7,-12 16,-23 26,-33 10,-10 21,-18 33,-25l25 39zm29 -186c10,-19 24,-30 41,-36 18,-5 37,-2 56,8l108 56 -30 56 -91 -47c-9,-5 -18,-7 -26,-5 -9,3 -15,8 -20,17 -5,11 -6,21 -2,30 4,10 12,18 23,24l84 43 -29 56 -233 -121 29 -56 91 47c-7,-11 -10,-23 -10,-35 0,-12 3,-24 9,-37zm47 -90l26 -57 175 79 -26 57 -175 -79zm-67 -65c4,-9 10,-15 18,-18 9,-3 17,-2 26,2 9,4 15,10 18,18 3,9 3,17 -1,26 -4,9 -10,15 -19,18 -8,3 -17,2 -25,-2 -9,-4 -15,-10 -19,-18 -3,-9 -2,-17 2,-26zm151 -139c6,-16 15,-30 28,-39 12,-10 27,-16 43,-17 17,-2 34,1 53,8 18,7 32,16 44,28 11,12 18,26 20,41 3,16 1,32 -5,48 -4,11 -10,20 -18,28 -8,7 -17,13 -28,16l88 34 -23 59 -243 -94 22 -59 24 9c-12,-19 -14,-40 -5,-62zm129 66c5,-11 4,-22 -1,-32 -6,-10 -15,-18 -28,-23 -13,-5 -26,-6 -37,-2 -11,4 -18,12 -23,23 -4,12 -3,22 2,33 6,10 15,17 28,23 14,5 26,5 36,1 11,-4 19,-11 23,-23zm-73 -215l18 -62 136 0 -114 -73 17 -57 135 0 -113 -73 17 -59 164 121 -18 60 -123 1 103 69 -18 60 -204 13zm91 -335l14 -61 187 42 -14 62 -187 -43zm-79 -49c2,-10 7,-17 15,-21 7,-5 16,-6 25,-4 10,2 17,7 22,14 5,8 6,16 4,26 -2,9 -7,16 -15,21 -7,5 -16,6 -25,4 -10,-2 -17,-7 -22,-15 -5,-7 -6,-16 -4,-25zm300 -142c3,8 4,17 5,26 0,9 0,19 -2,28 -3,19 -11,33 -24,43 -12,9 -28,12 -47,9l-81 -14 -4 26 -42 -7 5 -26 -52 -9 10 -62 53 9 8 -49 41 7 -8 49 71 13c13,2 21,-2 23,-13 1,-7 0,-15 -2,-25l46 -5zm-162 -181c3,-21 12,-37 26,-47 15,-11 34,-15 56,-12l120 16 -9 62 -101 -13c-11,-2 -20,0 -27,5 -7,5 -11,12 -13,22 -1,12 2,22 9,29 7,8 17,13 29,14l94 13 -8 62 -261 -34 8 -63 102 14c-10,-9 -17,-18 -21,-30 -5,-11 -6,-24 -4,-38zm87 -331l1 -56 99 2c10,14 17,30 23,49 5,20 8,38 8,55 -1,25 -7,48 -18,68 -12,20 -28,35 -47,46 -20,12 -42,17 -67,17 -24,-1 -45,-7 -65,-19 -19,-13 -34,-29 -45,-50 -10,-22 -15,-45 -15,-71 0,-18 4,-37 11,-55 7,-18 17,-34 28,-46l45 38c-9,8 -16,19 -21,30 -5,12 -8,23 -8,35 0,13 3,25 9,36 6,10 15,19 26,25 11,7 23,10 37,10 14,0 26,-3 38,-8 11,-6 20,-15 26,-26 7,-10 10,-22 11,-35 0,-13 -4,-27 -12,-44l-64 -1zm-70 -181c0,-21 4,-39 11,-55 8,-16 19,-29 34,-38 14,-9 31,-14 51,-14 19,0 37,4 52,12 15,8 26,20 35,36 8,16 13,34 13,55 1,21 -3,39 -11,55 -8,16 -19,28 -33,37 -15,9 -32,14 -52,14 -19,1 -36,-3 -51,-11 -15,-9 -27,-21 -35,-36 -9,-16 -13,-34 -14,-55zm51 -1c1,12 5,22 14,29 9,8 20,11 35,11 14,0 26,-4 34,-12 9,-8 13,-18 13,-30 -1,-13 -5,-23 -14,-30 -9,-7 -21,-11 -35,-11 -14,1 -26,5 -34,13 -9,8 -13,18 -13,30z"/>
   <path class="fil2" d="M7382 3986l261 -35 8 62 -24 3c9,6 17,13 23,22 6,9 10,19 11,31 3,17 1,33 -6,48 -6,14 -16,26 -30,36 -14,9 -31,15 -50,18 -19,2 -37,1 -52,-4 -16,-6 -28,-14 -38,-26 -10,-12 -16,-27 -18,-44 -2,-13 -1,-24 2,-34 4,-11 9,-20 17,-28l-95 13 -9 -62zm228 74c-2,-12 -7,-21 -17,-28 -10,-6 -22,-8 -36,-6 -14,2 -25,7 -33,16 -7,8 -10,19 -9,31 2,12 8,21 17,28 10,6 22,8 36,7 14,-2 25,-8 33,-17 8,-8 11,-19 9,-31zm-34 -168c-2,-9 0,-16 4,-23 5,-7 11,-11 20,-12 9,-2 17,0 24,4 6,5 10,12 12,21 1,8 0,16 -5,22 -5,7 -11,11 -20,13 -9,1 -17,0 -23,-5 -7,-4 -11,-11 -12,-20z"/>
  </g>
  <path class="fil2 str1" d="M6367 2694l67 0 7 8 2 3 2 3 9 12 3 5 7 9 7 9 8 11 1 2 10 15 2 1 1 2 8 12 2 3 2 3 8 11 0 1 5 6 6 9 3 5 0 0 2 3 8 11 3 5 8 12 1 2 1 1 6 10 1 2 6 9 7 11 0 0 4 6 7 11 2 3 1 2 7 11 1 2 4 6 6 10 6 10 5 8 5 8 7 12c4,7 8,15 13,22l6 11 6 10 3 5c144,256 251,534 315,827l-56 -7c-66,-293 -176,-571 -324,-826l0 -1 -10 -16 0 -1c-17,-28 -34,-56 -52,-84l-2 -3 -9 -13 -1 -3 -11 -16 0 0 -10 -16 -1 -1 -11 -16 0 0 -11 -16 -1 -1 -9 -14 -2 -2 -1 -3 -9 -12 -1 -2 -1 -1 -10 -14 -2 -2 -10 -15 -1 0 -8 -12 -1 -2 -5 -5 -9 -13 0 -1 -11 -13 -1 -3 -3 -3 -7 -10 -4 -5 -7 -8z"/>
 </g>
</svg>
